<?xml version="1.0" standalone="no"?>
<!DOCTYPE svg PUBLIC "-//W3C//DTD SVG 20010904//EN"
 "http://www.w3.org/TR/2001/REC-SVG-20010904/DTD/svg10.dtd">
<svg version="1.0" xmlns="http://www.w3.org/2000/svg"
 width="1024.000000pt" height="35.000000pt" viewBox="0 0 1024.000000 35.000000"
 preserveAspectRatio="xMidYMid meet">

<g transform="translate(0.000000,35.000000) scale(0.100000,-0.100000)"
fill="#000000" stroke="none">
<path d="M90 255 c0 -5 9 -23 20 -40 11 -16 20 -41 21 -55 1 -22 2 -21 9 7 4
18 15 44 24 59 10 14 15 28 13 31 -3 2 -13 -7 -23 -22 l-17 -26 -23 28 c-13
15 -23 24 -24 18z"/>
<path d="M471 205 c-1 -56 1 -61 21 -62 31 -3 48 15 48 48 0 28 -28 48 -49 34
-5 -3 -12 5 -14 17 -2 13 -5 -4 -6 -37z m53 -33 c-13 -20 -25 -20 -38 1 -7 10
-5 21 4 32 12 15 15 15 29 0 12 -12 13 -19 5 -33z"/>
<path d="M1140 240 c0 -13 -5 -18 -15 -14 -21 8 -45 -14 -45 -41 0 -28 19 -45
48 -42 20 1 22 7 22 59 0 32 -2 58 -5 58 -3 0 -5 -9 -5 -20z m-6 -68 c-13 -20
-25 -20 -38 1 -7 10 -5 21 4 32 12 15 15 15 29 0 12 -12 13 -19 5 -33z"/>
<path d="M2360 200 c0 -66 17 -83 22 -22 4 52 31 50 39 -3 l7 -40 -2 45 c-1
40 -4 45 -23 44 -16 0 -23 5 -23 18 0 10 -4 18 -10 18 -6 0 -10 -27 -10 -60z"/>
<path d="M2760 241 c0 -14 -6 -17 -25 -13 -19 3 -27 -1 -34 -19 -14 -38 1 -64
38 -65 l31 -1 0 59 c0 32 -2 58 -5 58 -3 0 -5 -8 -5 -19z m-11 -40 c7 -13 6
-23 -3 -36 -16 -22 -36 -12 -36 19 0 39 22 49 39 17z"/>
<path d="M1652 234 c-7 -8 -8 -14 -2 -14 5 0 10 -18 10 -40 0 -22 3 -40 8 -40
7 0 8 98 0 105 -1 2 -9 -3 -16 -11z"/>
<path d="M2228 240 c-2 -6 -13 -12 -26 -13 -19 -1 -22 -6 -21 -47 2 -34 3 -38
6 -15 9 61 40 73 45 18 5 -55 23 -51 21 4 -1 27 -2 51 -2 56 -1 11 -19 9 -23
-3z"/>
<path d="M2318 239 c-7 -20 6 -92 17 -96 8 -2 11 41 6 100 -1 11 -19 8 -23 -4z"/>
<path d="M3012 234 c-7 -8 -8 -14 -2 -14 5 0 10 -18 10 -40 0 -22 3 -40 8 -40
7 0 8 98 0 105 -1 2 -9 -3 -16 -11z"/>
<path d="M202 218 c-7 -7 -12 -21 -12 -33 0 -46 53 -62 71 -21 21 45 -26 87
-59 54z m46 -27 c5 -34 -16 -51 -33 -27 -10 14 -11 24 -4 38 13 24 33 18 37
-11z"/>
<path d="M294 190 c1 -42 3 -45 29 -46 26 -1 27 1 26 45 l-2 46 -6 -40 c-4
-26 -11 -40 -21 -40 -10 0 -17 14 -21 40 l-7 40 2 -45z"/>
<path d="M370 184 c0 -24 5 -44 10 -44 6 0 10 15 10 33 0 18 4 37 10 43 6 6 3
10 -10 11 -17 2 -20 -4 -20 -43z"/>
<path d="M561 180 c1 -43 1 -44 9 -13 4 18 13 39 19 47 10 12 9 15 -8 13 -18
-1 -21 -8 -20 -47z"/>
<path d="M622 218 c-30 -30 -2 -86 38 -73 15 5 20 15 20 40 0 41 -32 59 -58
33z m43 -34 c0 -32 -21 -39 -38 -12 -8 12 -7 21 3 32 19 24 35 14 35 -20z"/>
<path d="M705 188 c13 -47 28 -56 33 -20 5 31 22 28 22 -4 0 -16 5 -24 12 -22
13 5 31 63 25 81 -3 7 -9 -4 -14 -23 l-10 -35 -7 33 c-4 17 -11 32 -15 32 -5
0 -12 -15 -18 -32 l-10 -33 -7 33 c-4 17 -11 32 -16 32 -4 0 -2 -19 5 -42z"/>
<path d="M827 223 c-15 -14 -6 -34 20 -44 20 -7 23 -13 15 -21 -9 -9 -15 -9
-24 0 -18 18 -33 15 -18 -3 17 -20 54 -15 58 7 2 12 -6 21 -23 28 -15 6 -23
15 -20 21 4 6 13 8 21 5 8 -3 14 -1 14 4 0 11 -33 14 -43 3z"/>
<path d="M900 204 c-19 -48 28 -87 60 -49 14 17 0 21 -17 4 -6 -6 -16 -8 -22
-5 -21 13 -11 26 19 26 31 0 39 17 18 38 -20 20 -48 14 -58 -14z m48 -2 c2 -7
-6 -12 -17 -12 -21 0 -27 11 -14 24 9 9 26 2 31 -12z"/>
<path d="M992 180 c1 -40 2 -41 5 -10 2 19 11 40 20 47 13 10 13 12 -6 10 -18
-1 -21 -7 -19 -47z"/>
<path d="M1182 218 c-30 -30 -2 -86 38 -73 15 5 20 15 20 40 0 41 -32 59 -58
33z m43 -34 c0 -32 -21 -39 -38 -12 -8 12 -7 21 3 32 19 24 35 14 35 -20z"/>
<path d="M1272 218 c-16 -16 -15 -53 3 -68 18 -15 47 -10 53 10 5 13 3 13 -12
1 -15 -12 -19 -12 -34 2 -15 16 -14 17 17 17 28 0 32 3 29 23 -3 25 -36 35
-56 15z m46 -16 c2 -7 -7 -12 -23 -12 -24 0 -26 2 -15 15 14 17 31 16 38 -3z"/>
<path d="M1357 224 c-15 -15 -6 -35 20 -45 19 -7 23 -13 15 -21 -8 -8 -16 -7
-28 3 -15 12 -17 12 -12 -1 7 -21 52 -19 56 2 2 12 -6 21 -24 28 -20 8 -24 14
-16 22 8 8 16 7 28 -3 15 -12 17 -12 12 1 -5 16 -39 25 -51 14z"/>
<path d="M1481 181 l2 -46 6 40 c4 26 11 40 21 40 10 0 17 -14 21 -40 l7 -40
-2 45 c-1 42 -3 45 -28 46 -27 1 -28 -1 -27 -45z"/>
<path d="M1572 218 c-30 -30 -2 -86 38 -73 15 5 20 15 20 40 0 41 -32 59 -58
33z m43 -34 c0 -32 -21 -39 -38 -12 -8 12 -7 21 3 32 19 24 35 14 35 -20z"/>
<path d="M1747 224 c-15 -15 -6 -35 20 -45 19 -7 23 -13 15 -21 -8 -8 -16 -7
-28 3 -15 12 -17 12 -12 -1 6 -20 35 -25 53 -10 18 15 11 28 -23 41 -19 7 -22
13 -14 21 8 8 16 7 28 -3 15 -12 17 -12 12 1 -5 16 -39 25 -51 14z"/>
<path d="M1822 188 c3 -41 5 -43 36 -44 32 -1 32 -1 31 45 -2 34 -3 38 -6 16
-10 -63 -43 -74 -43 -15 0 22 -5 40 -11 40 -6 0 -9 -17 -7 -42z"/>
<path d="M1911 166 c1 -34 4 -51 6 -38 2 12 9 20 14 17 5 -4 18 -3 29 0 15 5
20 15 20 41 0 19 -3 35 -7 36 -5 0 -20 2 -35 3 -28 2 -28 2 -27 -59z m53 6
c-13 -20 -25 -20 -38 1 -7 10 -5 21 4 32 12 15 15 15 29 0 12 -12 13 -19 5
-33z"/>
<path d="M2001 166 c1 -34 4 -51 6 -38 2 12 9 20 14 17 5 -4 18 -3 29 0 15 5
20 15 20 41 0 19 -3 35 -7 36 -5 0 -20 2 -35 3 -28 2 -28 2 -27 -59z m53 6
c-13 -20 -25 -20 -38 1 -7 10 -5 21 4 32 12 15 15 15 29 0 12 -12 13 -19 5
-33z"/>
<path d="M2089 209 c-8 -16 -8 -28 0 -45 18 -41 71 -25 71 21 0 44 -50 61 -71
24z m46 -25 c0 -19 -5 -29 -15 -29 -16 0 -25 28 -16 51 10 25 31 10 31 -22z"/>
<path d="M2462 218 c-16 -16 -15 -53 3 -68 18 -15 47 -10 53 10 5 13 3 13 -12
1 -15 -12 -19 -12 -34 2 -15 16 -14 17 17 17 28 0 32 3 29 23 -3 25 -36 35
-56 15z m46 -16 c2 -7 -7 -12 -23 -12 -24 0 -26 2 -15 15 14 17 31 16 38 -3z"/>
<path d="M2580 224 c0 -20 24 -84 32 -84 8 0 18 20 33 70 11 36 -8 15 -21 -23
l-11 -32 -7 32 c-7 29 -26 56 -26 37z"/>
<path d="M2673 185 c0 -27 2 -38 4 -22 2 15 2 37 0 50 -2 12 -4 0 -4 -28z"/>
<path d="M2802 218 c-20 -20 -15 -66 8 -73 20 -6 56 12 45 23 -2 3 -11 -1 -19
-7 -8 -7 -20 -10 -26 -6 -20 12 -10 25 20 25 18 0 30 5 30 13 0 16 -20 37 -35
37 -6 0 -16 -5 -23 -12z m29 -26 c-28 -4 -40 6 -21 18 9 6 20 4 29 -3 12 -10
11 -13 -8 -15z"/>
<path d="M2879 209 c-8 -16 -8 -28 0 -45 18 -41 71 -25 71 21 0 44 -50 61 -71
24z m46 -25 c0 -19 -5 -29 -15 -29 -16 0 -25 28 -16 51 10 25 31 10 31 -22z"/>
<path d="M3067 224 c-14 -14 -7 -26 8 -14 12 10 19 10 27 2 8 -8 6 -13 -8 -18
-52 -19 -53 -54 0 -52 31 1 32 2 26 42 -4 31 -10 42 -25 44 -12 2 -24 0 -28
-4z m41 -56 c-7 -19 -38 -22 -38 -4 0 10 9 16 21 16 12 0 19 -5 17 -12z"/>
<path d="M3152 218 c-28 -28 -1 -88 34 -74 10 4 14 2 11 -6 -2 -7 -14 -13 -26
-12 -11 0 -21 -3 -21 -8 0 -5 12 -8 28 -6 25 3 27 6 30 58 3 52 1 56 -21 58
-13 1 -29 -4 -35 -10z m48 -32 c0 -6 -5 -18 -10 -26 -9 -13 -12 -13 -25 4 -19
25 -2 64 21 45 8 -6 14 -17 14 -23z"/>
<path d="M3240 150 c0 -5 5 -10 11 -10 5 0 7 5 4 10 -3 6 -8 10 -11 10 -2 0
-4 -4 -4 -10z"/>
</g>
</svg>
